<svg width="512" height="512" viewBox="0 0 512 512" fill="none" xmlns="http://www.w3.org/2000/svg">
<path d="M0 80C0 42.2876 0 23.4315 11.7157 11.7157C23.4315 0 42.2876 0 80 0H432C469.712 0 488.569 0 500.284 11.7157C512 23.4315 512 42.2876 512 80V432C512 469.712 512 488.569 500.284 500.284C488.569 512 469.712 512 432 512H80C42.2876 512 23.4315 512 11.7157 500.284C0 488.569 0 469.712 0 432V80Z" fill="#246BFD"/>
<g opacity="0.1">
<mask id="mask0_831_1783" style="mask-type:alpha" maskUnits="userSpaceOnUse" x="0" y="256" width="512" height="256">
<path d="M413.449 413.881C413.758 421.046 413.758 427.595 413.758 433.489V512H512V424.629C512 388.854 506.405 358.536 495.215 333.676C483.752 308.587 463.883 288.274 439.032 276.238C412.896 262.755 388.02 256.013 364.405 256.013C355.215 255.885 346.036 256.685 337.008 258.402C327.841 260.36 318.817 262.934 309.997 266.106C291.186 272.757 273.581 282.41 257.866 294.69C252.927 290.915 248.914 288.18 246.29 286.485C243.666 284.79 239.769 282.71 234.714 280.167L203.073 265.644C187.661 259.194 171.087 255.969 154.376 256.167C123.437 256.306 93.2498 265.699 67.7102 283.134C40.3135 301.188 22.1776 320.308 13.3026 340.494C4.11357 362.44 -0.406646 386.053 0.0287094 409.836V512H97.6536V429.791C97.5366 415.077 99.2343 400.405 102.709 386.106C106.902 372.212 113.86 362.928 123.584 358.253C131.74 354.007 140.744 351.633 149.937 351.307C159.13 350.98 168.28 352.709 176.718 356.366C190.185 363.531 198.443 372.738 201.375 383.91C203.906 392.706 205.496 401.745 206.121 410.876C206.43 417.617 206.43 423.974 206.43 429.868V512H304.402V422.741C304.177 409.721 305.88 396.74 309.457 384.218C313.303 373.823 320.55 365.028 330.024 359.255C337.927 354.344 346.996 351.619 356.302 351.358C367.764 351.416 378.995 354.585 388.792 360.526C393.898 363.561 398.308 367.633 401.738 372.477C405.168 377.321 407.54 382.83 408.703 388.648C411.397 396.812 412.993 405.297 413.449 413.881Z" fill="white"/>
</mask>
<g mask="url(#mask0_831_1783)">
<path d="M0 228C0 190.288 0 171.431 11.7157 159.716C23.4315 148 42.2876 148 80 148H432C469.712 148 488.569 148 500.284 159.716C512 171.431 512 190.288 512 228V432C512 469.712 512 488.569 500.284 500.284C488.569 512 469.712 512 432 512H80C42.2876 512 23.4315 512 11.7157 500.284C0 488.569 0 469.712 0 432V228Z" fill="white"/>
</g>
</g>
<path d="M321.088 245.672C321.088 248.5 319.807 251.113 317.244 253.51C314.917 255.806 311.779 257.094 308.51 257.095C305.178 257.066 301.979 255.787 299.546 253.51C297.036 251.01 295.781 248.391 295.781 245.672V209.887C295.781 208.363 295.781 206.67 295.702 204.818C295.584 202.598 295.172 200.405 294.477 198.294C294.177 196.79 293.564 195.366 292.679 194.113C291.794 192.861 290.655 191.808 289.337 191.024C286.809 189.488 283.91 188.668 280.952 188.653C278.55 188.721 276.209 189.425 274.169 190.695C271.724 192.188 269.853 194.461 268.861 197.149C267.937 200.386 267.498 203.742 267.556 207.108V245.472C267.556 248.201 266.311 250.811 263.801 253.311C262.668 254.507 261.3 255.457 259.784 256.103C258.268 256.749 256.635 257.077 254.987 257.065C251.654 257.035 248.454 255.751 246.023 253.47C243.527 250.96 242.275 248.304 242.269 245.502V208.951C242.269 207.427 242.269 205.784 242.189 204.041C242.028 201.68 241.617 199.343 240.964 197.069C240.207 194.181 238.076 191.801 234.6 189.948C232.422 189.003 230.06 188.556 227.687 188.64C225.315 188.725 222.991 189.338 220.886 190.436C218.376 191.644 216.58 194.045 215.497 197.637C214.601 201.334 214.163 205.127 214.193 208.931V245.453C214.193 248.181 212.948 250.801 210.458 253.311C209.333 254.504 207.974 255.454 206.466 256.1C204.959 256.746 203.334 257.075 201.693 257.065C198.358 257.053 195.153 255.771 192.73 253.48C190.24 250.99 188.995 248.321 188.995 245.512V203.772C188.883 197.623 190.049 191.519 192.421 185.845C194.712 180.626 199.393 175.683 206.464 171.015C213.056 166.507 220.848 164.079 228.833 164.043C233.146 163.992 237.424 164.826 241.402 166.493L249.569 170.248C250.874 170.905 251.88 171.443 252.557 171.881C253.234 172.32 254.27 173.027 255.545 174.003C259.601 170.828 264.145 168.332 269 166.613C271.276 165.793 273.606 165.127 275.972 164.621C278.302 164.177 280.671 163.97 283.043 164.003C289.138 164.003 295.559 165.746 302.305 169.232C308.719 172.344 313.847 177.595 316.806 184.082C319.694 190.509 321.138 198.347 321.138 207.596L321.088 245.672Z" fill="white"/>
<path d="M190.495 336.545L175.807 302.945H182.575L195.679 333.329H191.791L205.039 302.945H211.279L196.639 336.545H190.495ZM208.994 336.545L224.114 302.945H230.258L245.426 336.545H238.898L225.89 306.257H228.386L215.426 336.545H208.994ZM215.954 328.769L217.634 323.873H235.778L237.458 328.769H215.954ZM249.7 336.545V302.945H255.94V331.265H273.508V336.545H249.7ZM284.194 316.913H300.898V322.049H284.194V316.913ZM284.674 331.313H303.634V336.545H278.434V302.945H302.962V308.177H284.674V331.313ZM317.406 336.545V308.225H306.27V302.945H334.782V308.225H323.646V336.545H317.406Z" fill="white"/>
</svg>
